<svg id="icons" enable-background="new 0 0 64 64" height="512" viewBox="0 0 64 64" width="512" xmlns="http://www.w3.org/2000/svg"><path d="m40.557 9.443c-4.156-4.155-9.68-6.443-15.557-6.443s-11.401 2.288-15.557 6.443c-4.155 4.155-6.443 9.679-6.443 15.557 0 5.877 2.288 11.402 6.443 15.555 4.155 4.155 9.68 6.443 15.557 6.443s11.401-2.288 15.557-6.443c8.577-8.578 8.577-22.534 0-31.112zm-1.414 29.698c-3.777 3.777-8.8 5.857-14.143 5.857s-10.365-2.08-14.143-5.857c-3.777-3.777-5.857-8.799-5.857-14.141s2.08-10.365 5.857-14.142c3.778-3.778 8.8-5.858 14.143-5.858s10.365 2.081 14.143 5.858c7.797 7.797 7.797 20.485 0 28.283z"/><path d="m62.535 55.466-11.58-11.583c-.391-.391-1.023-.391-1.414 0l-.708.708-4.166-4.167c7.698-9.802 7.04-24.073-1.989-33.102-4.722-4.722-11-7.322-17.678-7.322-6.677 0-12.955 2.6-17.678 7.322-4.721 4.721-7.322 10.999-7.322 17.677.001 6.678 2.601 12.956 7.322 17.678s11 7.321 17.678 7.321c5.666 0 11.041-1.879 15.426-5.331l4.166 4.167-.707.707c-.391.391-.391 1.023 0 1.414l11.58 11.58c.944.944 2.2 1.465 3.536 1.465s2.591-.521 3.534-1.465c.944-.944 1.465-2.2 1.465-3.536 0-1.335-.52-2.589-1.465-3.533zm-53.799-14.203c-4.343-4.344-6.735-10.12-6.736-16.264 0-6.144 2.393-11.919 6.736-16.263 4.345-4.344 10.121-6.736 16.264-6.736 6.144 0 11.92 2.392 16.264 6.736 8.967 8.967 8.967 23.558 0 32.526-4.345 4.344-10.121 6.736-16.264 6.736-6.144 0-11.92-2.392-16.264-6.735zm33.217 2.103c.244-.226.488-.453.725-.689.237-.237.464-.48.689-.725l4.052 4.053-1.413 1.415zm19.167 17.755c-1.132 1.135-3.109 1.133-4.241 0l-10.873-10.873.705-.706c.001 0 .002-.001.002-.001s.001-.001.001-.002l2.823-2.823c.001-.001.003-.002.004-.003s.002-.003.003-.004l.704-.705 10.873 10.876h.001v.001c.566.565.878 1.317.878 2.118 0 .802-.312 1.556-.88 2.122z"/><path d="m39.001 30.002h-1.001v-2.002c0-6.243-4.425-11.468-10.301-12.714.188-.391.301-.824.301-1.286 0-1.654-1.346-3-3-3s-3 1.346-3 3c0 .462.113.895.301 1.286-5.876 1.246-10.301 6.471-10.301 12.714v2.002h-1.002c-.553 0-1 .448-1 1s.447 1 1 1h.001c.001 1.653 1.347 2.998 3 2.998h22c1.647 0 2.987-1.336 2.998-2.98 0-.006.004-.011.004-.018.553 0 1-.448 1-1s-.447-1-1-1zm-3.002 2.998h-22c-.551 0-.998-.447-.999-.998h23.999c-.001.55-.449.998-1 .998zm-11.999-19c0-.551.448-1 1-1s1 .449 1 1-.448 1-1 1-1-.449-1-1zm-10 14c0-6.065 4.935-11 11-11s11 4.935 11 11v2.002h-22z"/><path d="m25 18c-.553 0-1 .448-1 1s.447 1 1 1c4.411 0 8 3.589 8 8 0 .552.447 1 1 1s1-.448 1-1c0-5.514-4.486-10-10-10z"/></svg>