<svg id="Capa_1" enable-background="new 0 0 512.001 512.001" height="512" viewBox="0 0 512.001 512.001" width="512" xmlns="http://www.w3.org/2000/svg"><g id="XMLID_1427_"><g id="XMLID_516_"><path id="XMLID_517_" d="m476.879 309.268-32.46-105.689c-.387-53.632-21.292-104.147-58.962-142.396-37.984-38.565-88.683-60.284-142.757-61.157-38.453-.601-76.051 9.368-108.741 28.887-4.742 2.831-6.291 8.971-3.459 13.713 2.832 4.74 8.97 6.289 13.712 3.459 29.494-17.609 63.453-26.643 98.165-26.061 100.381 1.62 182.047 84.645 182.047 185.073 0 .995.148 1.984.441 2.936l32.871 107.028h-44.854c-5.523 0-10 4.478-10 10v55.217c0 26.313-21.407 47.721-47.72 47.721h-76.375c-23.776 0-46.128-9.259-62.94-26.071-3.905-3.904-10.237-3.904-14.143 0-3.905 3.905-3.905 10.237 0 14.143 19.897 19.897 46.131 31.153 74.149 31.888l-14.692 51.287c-1.521 5.31 1.55 10.847 6.859 12.367.92.264 1.847.39 2.759.39 4.349 0 8.351-2.86 9.608-7.249l16.258-56.754h58.516c37.341 0 67.72-30.379 67.72-67.721v-45.217h34.938c6.392 0 12.237-2.948 16.036-8.089 3.799-5.143 4.901-11.595 3.024-17.705z"/><path id="XMLID_844_" d="m54.254 201.872c.587-34.547 10.642-68.02 29.076-96.799 2.979-4.65 1.624-10.835-3.026-13.814-4.65-2.977-10.835-1.623-13.814 3.027-20.437 31.903-31.583 68.988-32.232 107.246-.66 38.791 9.422 82.081 27.661 118.771 17.534 35.274 22.221 75.311 13.197 112.735l-16.063 66.615c-1.295 5.368 2.008 10.771 7.377 12.065.788.189 1.576.28 2.353.28 4.513 0 8.608-3.077 9.713-7.658l16.063-66.615c10.124-41.985 4.893-86.849-14.73-126.325-16.861-33.913-26.182-73.835-25.575-109.528z"/><path id="XMLID_845_" d="m96.293 57.793c-3.905 3.905-3.905 10.237 0 14.143l.01.01c1.952 1.951 4.508 2.927 7.064 2.927 2.56 0 5.12-.979 7.074-2.932 3.905-3.905 3.9-10.242-.005-14.147s-10.237-3.905-14.143-.001z"/><path id="XMLID_848_" d="m290.297 307v-13.464c14.833-8.375 27.412-20.276 36.629-34.715 10.65-16.684 16.28-36.009 16.28-55.886 0-5.522-4.477-10-10-10h-109.775c-2.34-4.501-1.626-10.19 2.147-13.963 5.351-5.352 8.396-12.146 9.149-19.142h98.478c5.523 0 10-4.478 10-10s-4.477-10-10-10h-102.897c-1.302-2.15-2.874-4.181-4.729-6.036-3.774-3.773-4.488-9.463-2.147-13.964h109.774c5.523 0 10-4.478 10-10s-4.477-10-10-10h-188c-5.523 0-10 4.478-10 10s4.477 10 10 10h8.435c-1.173 6.739-.181 13.78 2.977 20h-12.955c-5.523 0-10 4.478-10 10s4.477 10 10 10h21.829c-.56 1.869-1.577 3.581-2.995 4.999-7.633 7.634-10.579 18.2-8.856 28.105h-8.435c-5.523 0-10 4.478-10 10 0 19.877 5.629 39.202 16.28 55.886 9.217 14.438 21.796 26.34 36.629 34.715v13.465c0 5.522 4.477 10 10 10h82.183c5.522 0 9.999-4.477 9.999-10zm-113.658-128.027c6.034-6.034 9.356-14.056 9.356-22.589s-3.323-16.555-9.356-22.589c-3.773-3.773-4.487-9.463-2.147-13.964h28.069c-.313 1.805-.482 3.648-.482 5.518 0 8.533 3.323 16.555 9.356 22.589 4.657 4.657 4.657 12.235 0 16.893-6.034 6.034-9.356 14.056-9.356 22.589 0 1.869.169 3.712.481 5.517h-28.069c-2.339-4.502-1.625-10.191 2.148-13.964zm93.658 108.525v9.502h-62.183v-9.502c0-3.826-2.183-7.316-5.623-8.991-26.13-12.722-43.393-37.287-46.705-65.571h166.837c-3.312 28.284-20.574 52.85-46.705 65.571-3.439 1.675-5.621 5.165-5.621 8.991z"/></g></g></svg>