<svg height="512" viewBox="0 0 512 512" width="512" xmlns="http://www.w3.org/2000/svg"><g id="flat"><rect fill="#d6d6d6" height="224" rx="16" width="144" x="184" y="144"/><path d="m184 281.973v70.027a16 16 0 0 0 16 16h112a16 16 0 0 0 16-16v-192a15.9 15.9 0 0 0 -2.534-8.618 201.4 201.4 0 0 1 -141.466 130.591z" fill="#b3b3b3"/><path d="m184 336h144v32h-144z" fill="#d6d6d6"/><circle cx="112" cy="400" fill="#9f785b" r="88"/><path d="m38.531 448.445a88 88 0 1 0 145.119-99.545 176.579 176.579 0 0 1 -145.119 99.545z" fill="#99694f"/><circle cx="112" cy="112" fill="#5eae35" r="88"/><path d="m38.531 160.445a88 88 0 1 0 145.119-99.545 176.579 176.579 0 0 1 -145.119 99.545z" fill="#599b32"/><circle cx="400" cy="112" fill="#ff4d4d" r="88"/><path d="m326.531 160.445a88 88 0 1 0 145.119-99.545 176.579 176.579 0 0 1 -145.119 99.545z" fill="#ef3a3a"/><circle cx="400" cy="400" fill="#95d7fe" r="88"/><path d="m326.531 448.445a88 88 0 1 0 145.119-99.545 176.579 176.579 0 0 1 -145.119 99.545z" fill="#7ac7ed"/><circle cx="256" cy="352" fill="#808080" r="16"/><rect fill="#654126" height="79.196" rx="8" transform="matrix(.707 -.707 .707 .707 -103.01 271.297)" width="16" x="268" y="220.402"/><circle cx="248" cy="232" fill="#16a8fe" r="32"/><path d="m352 96v64l96-16v-64z" fill="#ffa646"/><path d="m352 96a25.3 25.3 0 0 1 16-32l80 16z" fill="#ff8706"/><path d="m448 112-96 16v-32l96-16z" fill="#fee4a7"/><path d="m432 416-6.749-33.746a11.915 11.915 0 0 1 3.259-10.764 11.918 11.918 0 0 1 8.426-3.49h6.128a11.918 11.918 0 0 1 8.426 3.49 11.915 11.915 0 0 1 3.259 10.764l-6.749 33.746z" fill="#ff8706"/><path d="m440 376a7.974 7.974 0 0 1 -5.657-2.343l-16-16 11.314-11.314 10.343 10.344 10.343-10.344 11.314 11.314-16 16a7.974 7.974 0 0 1 -5.657 2.343z" fill="#5eae35"/><path d="m397.287 376.913a15.987 15.987 0 0 0 -6.712-23.488 15.982 15.982 0 0 0 -29.15 0 15.987 15.987 0 0 0 -6.712 23.488 15.992 15.992 0 0 0 5.287 31.087h32a15.992 15.992 0 0 0 5.287-31.087z" fill="#5eae35"/><circle cx="408" cy="400" fill="#fb0200" r="24"/><path d="m344 408h112a48 48 0 0 1 -48 48h-16a48 48 0 0 1 -48-48z" fill="#ffc933"/><path d="m76 360h24v40h-24z" fill="#ff8706"/><path d="m100 344h24v56h-24z" fill="#ffc933"/><path d="m124 352h24v48h-24z" fill="#ff8706"/><path d="m72 392h80l-8 56a131.927 131.927 0 0 0 -64 0z" fill="#fb0200"/><path d="m72 72a77.748 77.748 0 0 1 80 0l-40 104z" fill="#efd092"/><g fill="#e50000"><path d="m136 80a16 16 0 0 0 0 32c.212 0 .418-.023.627-.032l10.544-27.412a15.942 15.942 0 0 0 -11.171-4.556z"/><path d="m88 88a15.925 15.925 0 0 0 -8.824 2.658l11.21 29.142a15.99 15.99 0 0 0 -2.386-31.8z"/><path d="m112 136a15.959 15.959 0 0 0 -12.874 6.528l12.874 33.472 12.874-33.472a15.959 15.959 0 0 0 -12.874-6.528z"/></g></g></svg>